<svg width="66" height="66" xmlns="http://www.w3.org/2000/svg">
 <g>
  <title>background</title>
  <rect x="-1" y="-1" width="4.030523" height="4.030523" id="canvas_background" fill="none"/>
 </g>

 <g>
  <title>Layer 1</title>
  <ellipse fill="#3e4880" stroke-width="null" stroke-opacity="null" cx="33.122248" cy="32.877752" id="svg_8" rx="32.029368" ry="32.029368" stroke="null"/>
  <path d="m49.16893,49.41067l-12.48075,0l0,-11.58927l-7.13187,0l0,11.58927l-12.48076,0l0,-18.72114c0,-0.49209 0.3985,-0.89148 0.89149,-0.89148s0.89148,0.39939 0.89148,0.89148l0,16.93818l8.91483,0l0,-11.58928l10.69779,0l0,11.58928l8.91483,0l0,-16.04669c0,-0.4921 0.39849,-0.89149 0.89148,-0.89149s0.89149,0.39939 0.89149,0.89149l0,17.82965l-0.00001,0z" id="svg_3" stroke-opacity="0" fill="#ededee" stroke="#000000"/>
  <path d="m52.35884,31.57502c-0.20826,0 -0.41567,-0.07695 -0.57792,-0.23168l-18.65826,-17.84698l-18.65825,17.84698c-0.3337,0.31866 -0.86311,0.30778 -1.1826,-0.02592c-0.31949,-0.33371 -0.30694,-0.86312 0.02593,-1.18261l19.81493,-18.95348l19.81409,18.95264c0.33287,0.31949 0.34541,0.84891 0.02593,1.18261c-0.16393,0.17145 -0.38306,0.25844 -0.60385,0.25844z" id="svg_5" stroke-opacity="0" fill="#ededee" stroke-width="0" stroke="#000000"/>
  <path d="m49.05761,23.50407c-0.33806,0 -0.61133,-0.27387 -0.61133,-0.61133l0,-3.66794l-3.66794,0c-0.33807,0 -0.61133,-0.27388 -0.61133,-0.61133s0.27326,-0.61132 0.61133,-0.61132l4.89059,0l0,4.89059c0,0.33745 -0.27326,0.61133 -0.61132,0.61133z" id="svg_7" stroke-opacity="0" fill="#ededee" stroke-width="0" stroke="#000000"/>
 </g>
</svg>