<svg width="66" height="66" xmlns="http://www.w3.org/2000/svg">

 <g>
  <title>background</title>
  <rect fill="none" id="canvas_background" height="68" width="68" y="-1" x="-1"/>
 </g>
 <g>
  <title>Layer 1</title>
  <rect id="svg_1" width="50" height="50" fill="none"/>
  <ellipse ry="31.272969" rx="31.272969" id="svg_4" cy="33.000002" cx="33.000001" stroke-width="2" fill="#3e4880"/>
  <path stroke="#00000e" id="svg_2" stroke-miterlimit="10" fill="#ededee" d="m36.567695,40.01045c0,0 2.768719,-1.585056 3.493551,-1.965934c0.72278,-0.382246 1.471545,-0.478662 1.926274,-0.201038c0.68859,0.421223 6.47083,4.267616 6.957698,4.60815c0.486868,0.341218 0.721412,1.315637 0.051969,2.270227c-0.666708,0.954589 -3.742455,4.729183 -5.045784,4.688839c-1.30538,-0.042396 -6.732726,-0.161378 -16.967209,-10.398595c-10.232431,-10.233799 -10.353464,-15.662513 -10.395176,-16.967893c-0.041712,-1.304697 3.732882,-4.381127 4.687471,-5.048519c0.955957,-0.666708 1.931744,-0.415752 2.27091,0.053337c0.385665,0.53405 4.187611,6.297828 4.606098,6.958381c0.286514,0.45131 0.181208,1.204177 -0.201038,1.927641c-0.380195,0.724831 -1.96525,3.493551 -1.96525,3.493551s1.117334,1.90576 4.896031,5.683772c3.77938,3.778697 5.684456,4.898082 5.684456,4.898082z"/>
 </g>
</svg>